<svg
  version="1.1"
  id="Layer_1"
  xmlns="http://www.w3.org/2000/svg"
  xmlns:xlink="http://www.w3.org/1999/xlink"
  viewBox="0 0 505 505"
  xml:space="preserve"
  fill="#000000"
>
  <g id="SVGRepo_bgCarrier" stroke-width="0"></g>
  <g
    id="SVGRepo_tracerCarrier"
    stroke-linecap="round"
    stroke-linejoin="round"
  ></g>
  <g id="SVGRepo_iconCarrier">
    <circle style="fill: #ff5b62" cx="252.5" cy="252.5" r="252.5"></circle>
    <rect x="349.7" y="246" style="fill: #ffffff" width="16" height="13"></rect>
    <g>
      <polygon
        style="fill: #324a5e"
        points="314.8,195.9 173.5,195.9 190.7,82.8 297.6,82.8 "
      ></polygon>
      <polygon
        style="fill: #324a5e"
        points="314.8,309.1 173.5,309.1 190.7,422.2 297.6,422.2 "
      ></polygon>
    </g>
    <circle style="fill: #ffca57" cx="244.2" cy="252.5" r="111.7"></circle>
    <g>
      <circle style="fill: #ffffff" cx="244.2" cy="252.5" r="92.5"></circle>
      <circle style="fill: #ffffff" cx="244.2" cy="176.9" r="4.6"></circle>
      <circle style="fill: #ffffff" cx="244.2" cy="328.1" r="4.6"></circle>
      <circle style="fill: #ffffff" cx="319.8" cy="252.5" r="4.6"></circle>
      <circle style="fill: #ffffff" cx="168.5" cy="252.5" r="4.6"></circle>
      <circle style="fill: #ffffff" cx="297.6" cy="199" r="4.6"></circle>
      <circle style="fill: #ffffff" cx="190.7" cy="306" r="4.6"></circle>
      <circle style="fill: #ffffff" cx="297.6" cy="306" r="4.6"></circle>
      <circle style="fill: #ffffff" cx="190.7" cy="199" r="4.6"></circle>
    </g>
    <g>
      <polygon
        style="fill: #324a5e"
        points="248.8,247.9 248.8,194.4 239.5,194.4 239.5,247.9 239.5,251.3 239.5,257.1 290.7,257.1 290.7,247.9 "
      ></polygon>
      <rect
        x="363"
        y="239.5"
        style="fill: #324a5e"
        width="9.5"
        height="25.9"
      ></rect>
    </g>
  </g>
</svg>
